<svg width="148" height="148" viewBox="-2 -14 152 148" xmlns="http://www.w3.org/2000/svg">
  <path d="M 72 122 C 73 121, 74 120, 73 119 C 72 118, 71 119, 71 120 C 71 121, 72 122, 72 122 C 76 121, 79 117, 78 113 C 76 109, 70 108, 68 111 C 66 114, 68 120, 72 119 C 80 116, 88 104, 84 92 C 80 80, 62 76, 52 84 C 42 92, 50 108, 66 104 C 90 96, 108 72, 100 52 C 92 34, 56 26, 40 40 C 24 54, 34 78, 58 74 C 100 62, 128 32, 118 10 C 108 -6, 48 -10, 26 8 C 8 24, 18 50, 48 48" fill="none" stroke="#8B4513" stroke-width="2" stroke-linecap="round"/>
  <circle cx="72" cy="124" r="2.8" fill="#8B4513" opacity="0.5"/>
</svg>
