<svg viewBox="0 0 500 560" xmlns="http://www.w3.org/2000/svg" role="img" aria-label="Crania — Logo vertical (fondo oscuro)">
  <rect width="500" height="560" fill="#2A1F1A"/>

  <g transform="translate(250, 240)">
    <circle r="135" fill="none" stroke="#E8A857" stroke-width="0.6" opacity="0.35"/>

    <g fill="none" stroke="#F5EDE0" stroke-width="1.6">
      <path d="M 0,0 C -35,-35 -35,-95 0,-130 C 35,-95 35,-35 0,0 Z"/>
      <path d="M 0,0 C -35,-35 -35,-95 0,-130 C 35,-95 35,-35 0,0 Z" transform="rotate(60)"/>
      <path d="M 0,0 C -35,-35 -35,-95 0,-130 C 35,-95 35,-35 0,0 Z" transform="rotate(120)"/>
      <path d="M 0,0 C -35,-35 -35,-95 0,-130 C 35,-95 35,-35 0,0 Z" transform="rotate(180)"/>
      <path d="M 0,0 C -35,-35 -35,-95 0,-130 C 35,-95 35,-35 0,0 Z" transform="rotate(240)"/>
      <path d="M 0,0 C -35,-35 -35,-95 0,-130 C 35,-95 35,-35 0,0 Z" transform="rotate(300)"/>
    </g>

    <g fill="none" stroke="#F5EDE0" stroke-width="1.4" opacity="0.7">
      <path d="M 0,0 C -22,-22 -22,-60 0,-82 C 22,-60 22,-22 0,0 Z" transform="rotate(30)"/>
      <path d="M 0,0 C -22,-22 -22,-60 0,-82 C 22,-60 22,-22 0,0 Z" transform="rotate(90)"/>
      <path d="M 0,0 C -22,-22 -22,-60 0,-82 C 22,-60 22,-22 0,0 Z" transform="rotate(150)"/>
      <path d="M 0,0 C -22,-22 -22,-60 0,-82 C 22,-60 22,-22 0,0 Z" transform="rotate(210)"/>
      <path d="M 0,0 C -22,-22 -22,-60 0,-82 C 22,-60 22,-22 0,0 Z" transform="rotate(270)"/>
      <path d="M 0,0 C -22,-22 -22,-60 0,-82 C 22,-60 22,-22 0,0 Z" transform="rotate(330)"/>
    </g>

    <g stroke="#E8A857" stroke-width="0.7" opacity="0.7">
      <line x1="0" y1="0" x2="0" y2="-130"/>
      <line x1="0" y1="0" x2="0" y2="-130" transform="rotate(60)"/>
      <line x1="0" y1="0" x2="0" y2="-130" transform="rotate(120)"/>
      <line x1="0" y1="0" x2="0" y2="-130" transform="rotate(180)"/>
      <line x1="0" y1="0" x2="0" y2="-130" transform="rotate(240)"/>
      <line x1="0" y1="0" x2="0" y2="-130" transform="rotate(300)"/>
    </g>

    <circle r="24" fill="none" stroke="#F5EDE0" stroke-width="1.2"/>
    <circle r="14" fill="none" stroke="#E8A857" stroke-width="0.8"/>
    <circle r="5" fill="#E8A857"/>
  </g>

  <g transform="translate(250, 448)" text-anchor="middle">
    <text font-family="'Cormorant Garamond', Georgia, serif"
          font-size="54" font-weight="400" font-style="italic"
          letter-spacing="3" fill="#F5EDE0"
          x="0" y="0">Crania</text>
    <line x1="-40" y1="14" x2="40" y2="14" stroke="#E8A857" stroke-width="0.8" opacity="0.9"/>
    <text font-family="'Inter', sans-serif"
          font-size="11" font-weight="400" letter-spacing="5"
          fill="#E8A857"
          x="0" y="34">PRÁCTICA CRANEOFASCIAL</text>
    <text font-family="'Inter', sans-serif"
          font-size="8" font-weight="300" letter-spacing="3"
          fill="#888580"
          x="0" y="56">INSTITUTO CENTROBIOENERGETICA</text>
  </g>
</svg>
